# xmcd CD database file
#
# Track frame offsets:
#	150
#	8064
#	23364
#	38686
#	52835
#	71587
#	82839
#	110039
#	139083
#	171470
#	187817
#	208047
#	229987
#
# Disc length: 3226 seconds
#
# Revision: 0
# Processed by: cddbd v1.5.2PL0 Copyright (c) Steve Scherf et al.
# Submitted via: CDex 1.70beta2
#
DISCID=a00c980d
DTITLE=東京スカパラダイスオーケストラ - トーキョー・ストラット
DYEAR=1900
DGENRE=Jazz
TTITLE0=スターライト・エクスプレス
TTITLE1=ユー・ドント・ノウ(ホワット・スカ・イズ)
TTITLE2=スコール
TTITLE3=(アイ・ノウ,サムワン・オブ・ユー・クルージン・オン)ルート135 
TTITLE4=スウィングマン
TTITLE5=あの男に気をつけろ~ウォッチ・ザット・マン 
TTITLE6=シムーン
TTITLE7=ドゥ・ユー・フィール・ライク・ゴーイング・トゥ・ディスコ!? 
TTITLE8=エクストラ
TTITLE9=ジェントリー~時間をおいかけて 
TTITLE10=パラダイス・ブギー・バック・アゲイン
TTITLE11=きままな生活
TTITLE12=さて,どうする? ホワット・ダズ・イット・テイク(トゥ・ウィン・ユア・ラヴ)
EXTD=
EXTT0=
EXTT1=
EXTT2=
EXTT3=
EXTT4=
EXTT5=
EXTT6=
EXTT7=
EXTT8=
EXTT9=
EXTT10=
EXTT11=
EXTT12=
PLAYORDER=
